Coordinates
version=1
nRows=5
nColumns=40
inDegrees=yes

Units are S.I. units (second, meters, Newtons, ...)
Angles are in degrees.

endheader
time	pelvis_tilt	pelvis_list	pelvis_rotation	pelvis_tx	pelvis_ty	pelvis_tz	hip_flexion_r	hip_adduction_r	hip_rotation_r	knee_angle_r	knee_angle_r_beta	ankle_angle_r	subtalar_angle_r	mtp_angle_r	hip_flexion_l	hip_adduction_l	hip_rotation_l	knee_angle_l	knee_angle_l_beta	ankle_angle_l	subtalar_angle_l	mtp_angle_l	lumbar_extension	lumbar_bending	lumbar_rotation	arm_flex_r	arm_add_r	arm_rot_r	elbow_flex_r	pro_sup_r	wrist_flex_r	wrist_dev_r	arm_flex_l	arm_add_l	arm_rot_l	elbow_flex_l	pro_sup_l	wrist_flex_l	wrist_dev_l
     48.20750000	     -2.33621490	     -4.93692097	      4.91633050	      1.04428811	      0.93382869	      0.49262160	      5.30167246	      3.90048962	    -16.69293052	     11.89722458	     11.89722458	     10.92028126	      3.10411215	     -4.90195588	     31.56829075	    -13.48246428	      0.81432759	     44.28092340	     44.28092340	      9.82510695	    -17.89151552	     10.49032003	     -9.66877563	      6.08902116	      2.41742903	     32.06799150	    -21.88606571	     -7.53406297	     67.91495544	     45.07235618	      0.00000000	      0.00000000	     -2.13989165	     -8.40176583	     -4.56317849	     25.59545080	     45.76947822	      0.00000000	      0.00000000
     48.22100000	     -2.61209107	     -4.79633200	      5.22022725	      1.04270212	      0.93348955	      0.49223720	      5.14614135	      3.78842685	    -16.78188264	     11.57418937	     11.57418937	     10.99721239	      2.99220827	     -5.02810567	     31.91394318	    -13.01570358	      0.64127347	     40.65757785	     40.65757785	      9.85270604	    -17.54079530	     10.93327299	     -9.58609851	      5.95163682	      2.61893566	     33.31937108	    -22.19146534	     -7.93835264	     69.53585581	     45.04151752	      0.00000000	      0.00000000	     -3.14096542	     -8.26954461	     -4.41606822	     25.31054358	     45.72526867	      0.00000000	      0.00000000
     48.23450000	     -2.80648021	     -4.74126031	      5.56342780	      1.04111929	      0.93312448	      0.49169270	      4.89762946	      3.76635247	    -16.96073433	     11.22957598	     11.22957598	     11.06904933	      2.91387463	     -5.20931282	     32.12070214	    -12.54847104	      0.69422415	     37.04859927	     37.04859927	      9.76662077	    -17.07495565	     11.26385398	     -9.65812361	      5.93106963	      2.55713191	     34.47764652	    -22.18088198	     -8.40855647	     71.79136122	     44.99244009	      0.00000000	      0.00000000	     -4.19719744	     -8.18994929	     -4.21455991	     25.02292727	     45.67027307	      0.00000000	      0.00000000
     48.24800000	     -3.03493295	     -4.71365882	      5.89820548	      1.03951775	      0.93261819	      0.49100205	      4.70582358	      3.75492658	    -17.15758897	     10.92110154	     10.92110154	     11.14922113	      2.87481336	     -5.41933796	     32.32154961	    -12.08279379	      0.80488462	     33.57928113	     33.57928113	      9.65344775	    -16.26754370	     11.48060166	     -9.68424634	      5.91989363	      2.58034212	     35.53644831	    -22.23030177	     -8.92946932	     74.03245079	     44.94621113	      0.00000000	      0.00000000	     -5.13064780	     -8.09041163	     -3.99803860	     24.80861612	     45.61465583	      0.00000000	      0.00000000
     48.26150000	     -3.37329643	     -4.95188495	      6.24883349	      1.03780248	      0.93166525	      0.49020787	      4.75296741	      3.98333115	    -17.43907112	     10.78489785	     10.78489785	     11.27544002	      2.77691775	     -5.54554377	     32.85104110	    -11.84736205	      1.15019129	     30.64268475	     30.64268475	      9.63728806	    -15.10611241	     11.79821488	     -9.50533101	      6.22051446	      2.79476218	     36.80703030	    -22.67418147	     -9.28332815	     75.04410007	     44.93252062	      0.00000000	      0.00000000	     -5.83781471	     -7.91328311	     -3.92950336	     24.59467718	     45.58964387	      0.00000000	      0.00000000
